<?xml version="1.0" standalone="no"?><!DOCTYPE svg PUBLIC "-//W3C//DTD SVG 1.1//EN" "http://www.w3.org/Graphics/SVG/1.1/DTD/svg11.dtd"><svg t="1628560622262" class="icon" viewBox="0 0 1024 1024" version="1.1" xmlns="http://www.w3.org/2000/svg" p-id="3078" xmlns:xlink="http://www.w3.org/1999/xlink" width="200" height="200"><defs><style type="text/css"></style></defs><path d="M511.5 81C755.334 81 953 278.666 953 522.5S755.334 964 511.5 964 70 766.334 70 522.5 267.666 81 511.5 81zM376.54 398.426c-9.979-0.054-18.183 7.855-18.492 17.83l-0.037 1.19c-0.315 10.156 7.664 18.646 17.82 18.961l0.184 0.005 13.094 0.276c6.255 0.132 11.258 5.24 11.258 11.497v207.49c0 24.134 19.565 43.7 43.7 43.7a43.7 43.7 0 0 0 32.7-14.712l243.009-274.116a6.9 6.9 0 0 0-5.163-11.477h-57.816a34.5 34.5 0 0 0-26.487 12.394l-163.501 195.91a6.9 6.9 0 0 1-12.198-4.421V412.579c0-7.592-6.132-13.759-13.724-13.8l-64.347-0.353z" fill="#ae8359" p-id="3079"></path></svg>