<?xml version="1.0" standalone="no"?><!DOCTYPE svg PUBLIC "-//W3C//DTD SVG 1.1//EN" "http://www.w3.org/Graphics/SVG/1.1/DTD/svg11.dtd"><svg t="1627874861410" class="icon" viewBox="0 0 1024 1024" version="1.1" xmlns="http://www.w3.org/2000/svg" p-id="590" xmlns:xlink="http://www.w3.org/1999/xlink" width="200" height="200"><defs><style type="text/css"></style></defs><path d="M512 62c-248.512 0-450 201.487-450 450 0 248.541 201.487 450 450 450s450-201.459 450-450c0-248.512-201.487-450-450-450zM765.125 624.5h-225v140.625h-56.25v-140.625h-225v-56.25h225v-84.375h-196.875v-56.25h143.016l-134.072-134.1 39.797-39.797 167.344 167.344-6.553 6.553h30.966l-6.525-6.525 167.344-167.344 39.797 39.797-134.128 134.072h143.016v56.25h-196.875v84.375h225v56.25z" p-id="591" fill="#d81e06"></path></svg>